<svg width="242" height="115" viewBox="0 0 242 115" fill="none" xmlns="http://www.w3.org/2000/svg">
<style>
    path {
      fill: black;
    }

    @media (prefers-color-scheme: dark) {
      path {
        fill: white;
      }
    }
  </style>
<path d="M20.2451 34.0483C20.4213 33.8565 20.5911 33.6567 20.7751 33.4727C31.1237 23.1179 41.5068 12.7977 51.8034 2.39096C52.5576 1.63317 53.4541 1.03185 54.4414 0.621535C55.4287 0.211222 56.4873 0 57.5564 0C58.6256 0 59.6842 0.211222 60.6715 0.621535C61.6587 1.03185 62.5553 1.63317 63.3095 2.39096C72.0601 11.269 80.913 20.0464 89.7407 28.8473C90.1826 29.2893 90.2518 29.5063 89.7658 29.9876C83.3019 36.4127 76.8538 42.8551 70.4213 49.3148C69.9873 49.7504 69.7734 49.7441 69.3456 49.3148C62.7297 42.6705 56.1064 36.0342 49.4758 29.4056C49.015 28.9433 48.7853 28.8631 48.2742 29.3805C44.2449 33.4601 40.1779 37.5036 36.1202 41.5581C35.9362 41.7421 35.7349 41.9088 35.543 42.0834C35.3205 42.0129 35.1026 41.9289 34.8903 41.8317C31.769 40.1982 28.6498 38.5594 25.5326 36.9154C23.7665 35.9781 22.0081 35.0061 20.2451 34.0483Z" fill="#096DD9"/>
<path d="M75.6286 100.085C75.4572 100.279 75.2936 100.483 75.1112 100.667C71.1102 104.668 67.1076 108.668 63.1034 112.666C59.9989 115.765 55.1266 115.783 52.0299 112.689C44.4661 105.14 36.9034 97.5874 29.3418 90.031C28.892 89.5827 28.8432 89.3421 29.3244 88.8719C32.2985 85.9592 35.2395 83.0119 38.1931 80.0756C38.2831 80.2662 38.443 80.4149 38.6397 80.4908C40.0661 81.252 41.4895 82.0227 42.916 82.7854C45.9765 84.4232 49.0386 86.0577 52.1022 87.6892C57.287 90.4446 62.4743 93.1979 67.6643 95.9491C69.5296 96.9431 71.3697 97.9811 73.2443 98.9577C74.0213 99.3635 74.7668 99.8526 75.6286 100.085Z" fill="#096DD9"/>
<path d="M20.2452 34.0483C22.0082 35.0061 23.7665 35.978 25.539 36.9185C28.653 38.5688 31.7722 40.2076 34.8967 41.8348C35.1089 41.932 35.3269 42.016 35.5494 42.0865C35.3921 42.2626 35.2537 42.4482 35.0886 42.6118C26.4239 51.2743 17.7634 59.9395 9.10716 68.6073C8.59917 69.1169 8.36167 69.0619 7.90086 68.5869C6.05762 66.6902 4.16881 64.8391 2.30198 62.9675C-0.698776 59.9558 -0.79628 55.1039 2.18875 52.0748C8.07546 46.1158 14.0172 40.2102 19.9385 34.2842C20.0353 34.1988 20.1378 34.1199 20.2452 34.0483V34.0483Z" fill="#096DD9"/>
<path d="M75.6281 100.085C74.7663 99.8526 74.0208 99.3635 73.2439 98.9578C71.3692 97.9811 69.5291 96.9431 67.6638 95.9491C62.4791 93.1906 57.2917 90.4373 52.1017 87.6892C49.036 86.0598 45.9739 84.4253 42.9155 82.7854C41.489 82.0227 40.0657 81.252 38.6392 80.4908C38.4399 80.4159 38.2775 80.2665 38.1863 80.0741C41.7627 76.4736 45.3374 72.8715 48.9107 69.2679C49.167 69.0068 49.318 68.9848 49.5933 69.2679C54.1542 73.8476 58.7748 78.3708 63.276 83.0072C65.4054 85.209 67.6009 87.3275 69.7037 89.5466C70.1582 90.0278 70.4271 89.8281 70.7826 89.4695C72.9949 87.2404 75.2135 85.0187 77.4383 82.8043C77.6208 82.6219 77.8284 82.4646 78.025 82.2963C80.167 83.1786 82.114 84.4462 84.1806 85.4638C85.53 86.1275 86.7725 86.9972 88.1958 87.5083C86.8385 88.8876 85.486 90.2716 84.1224 91.643C82.2352 93.5303 80.3872 95.4632 78.4402 97.2907C77.4792 98.1981 76.5608 99.1433 75.6281 100.085Z" fill="#096DD9"/>
<path d="M88.1994 87.51C86.776 86.9926 85.5336 86.1229 84.1842 85.4655C82.1129 84.4479 80.1706 83.1803 78.0286 82.298C78.1622 82.1407 78.2849 81.9709 78.4312 81.8262C83.3999 76.8511 88.3703 71.8782 93.3422 66.9073C93.4562 66.8034 93.5753 66.7052 93.6992 66.6132C93.6992 66.9797 93.9948 67.0725 94.2481 67.203C94.8771 67.5285 95.5062 67.8494 96.1259 68.1781L103.603 72.1099C103.583 72.1576 103.558 72.2026 103.527 72.2436C98.463 77.3078 93.3972 82.3709 88.3299 87.4329C88.2902 87.4645 88.2462 87.4905 88.1994 87.51V87.51Z" fill="#096DD9"/>
<path d="M103.612 72.1066L96.1353 68.1748C95.5062 67.8461 94.8772 67.5253 94.2575 67.1997C94.0043 67.0692 93.7086 66.9764 93.7086 66.61C93.8454 66.4527 93.9744 66.2954 94.1207 66.1381C99.4113 60.8433 104.699 55.5485 109.985 50.2536C110.438 49.7975 110.711 49.7378 111.142 50.2536C111.595 50.7915 112.132 51.2617 112.63 51.7603C115.947 55.0803 115.947 59.8425 112.63 63.1594C109.818 65.9725 107.004 68.7845 104.189 71.5955C104.001 71.7685 103.799 71.9336 103.612 72.1066Z" fill="#096DD9"/>
<path d="M201.237 48.9781C201.237 46.4618 201.237 43.9454 201.237 41.4369C201.237 41.0075 201.274 40.7748 201.813 40.7811C204.51 40.8172 207.211 40.7323 209.903 40.8377C214.357 41.0107 217.709 44.6736 217.658 49.1826C217.621 51.2871 216.773 53.2959 215.29 54.7903C213.808 56.2846 211.806 57.1491 209.702 57.2035C207.085 57.2554 204.465 57.2035 201.838 57.2239C201.352 57.2239 201.222 57.0871 201.226 56.6043C201.25 54.0596 201.237 51.5196 201.237 48.9781ZM204.2 49.0001C204.2 50.5729 204.2 52.1456 204.2 53.7183C204.2 54.0328 204.2 54.2766 204.633 54.2688C206.489 54.2357 208.356 54.3364 210.2 54.1838C212.742 53.9747 214.835 51.4143 214.705 48.8885C214.562 46.1393 212.393 43.8778 209.774 43.8086C208.099 43.7645 206.424 43.8086 204.741 43.7881C204.27 43.7803 204.18 43.9454 204.186 44.3763C204.215 45.9113 204.2 47.4557 204.2 49.0001Z" fill="#096DD9"/>
<path d="M178.762 46.8172C177.121 48.0754 175.616 49.1984 174.162 50.3732C173.68 50.7616 173.375 50.7522 172.903 50.3637C171.585 49.2911 170.217 48.2783 168.868 47.245C168.729 47.1381 168.613 46.9792 168.388 47.0013C168.22 47.2608 168.305 47.5517 168.303 47.8254C168.303 50.705 168.284 53.5847 168.313 56.4643C168.313 57.0384 168.185 57.268 167.577 57.2114C166.852 57.1453 165.898 57.4331 165.447 57.0683C164.966 56.6798 165.301 55.6921 165.29 54.9671C165.274 50.543 165.29 46.119 165.29 41.6949V40.9305C165.604 40.8409 165.718 41.0611 165.865 41.1727C168.215 42.9688 170.574 44.7507 172.889 46.5892C173.418 47.0091 173.727 46.9431 174.213 46.5625C176.659 44.6437 179.134 42.7628 181.605 40.8692C181.855 41.0532 181.753 41.2797 181.753 41.4653C181.753 46.465 181.753 51.4662 181.772 56.4659C181.772 57.0321 181.66 57.2774 181.047 57.2098C180.323 57.1312 179.381 57.5023 178.922 57.0714C178.463 56.6405 178.784 55.6843 178.777 54.9608C178.749 52.3186 178.762 49.6749 178.762 46.8172Z" fill="#096DD9"/>
<path d="M128.933 40.7889L142.286 51.0698C142.52 50.8308 142.421 50.5854 142.421 50.3684C142.429 47.4085 142.44 44.4486 142.421 41.4904C142.421 40.9478 142.542 40.7417 143.108 40.7921C143.684 40.8315 144.262 40.8315 144.838 40.7921C145.256 40.77 145.436 40.8628 145.434 41.3394C145.415 46.5514 145.42 51.7634 145.417 56.9754C145.396 57.0542 145.366 57.1303 145.327 57.2019L131.921 46.8895V51.6706C131.921 53.2937 131.891 54.9183 131.937 56.5461C131.954 57.1563 131.756 57.323 131.182 57.2758C130.606 57.2395 130.028 57.2395 129.452 57.2758C129.031 57.2947 128.924 57.1185 128.924 56.7238C128.933 51.4819 128.933 46.2431 128.933 40.7889Z" fill="#096DD9"/>
<path d="M155.373 40.8032C156.454 40.7973 157.525 41.0061 158.524 41.4174C159.523 41.8288 160.431 42.4344 161.194 43.1993C161.958 43.9642 162.562 44.8731 162.971 45.8732C163.381 46.8733 163.587 47.9448 163.579 49.0254C163.58 50.1072 163.365 51.1783 162.948 52.1766C162.531 53.1749 161.921 54.0806 161.151 54.8413C160.382 55.6019 159.47 56.2024 158.467 56.6079C157.464 57.0134 156.39 57.2158 155.308 57.2036C154.227 57.202 153.157 56.986 152.16 56.5682C151.163 56.1504 150.258 55.539 149.499 54.7694C148.74 53.9998 148.14 53.0872 147.736 52.0846C147.332 51.0819 147.13 50.009 147.143 48.9279C147.148 47.8535 147.365 46.7907 147.782 45.8004C148.199 44.8101 148.807 43.9118 149.571 43.157C150.336 42.4022 151.242 41.8058 152.238 41.4018C153.233 40.9979 154.299 40.7945 155.373 40.8032V40.8032ZM155.272 54.2122C158.235 54.2311 160.607 51.9271 160.632 49.0034C160.656 46.1725 158.232 43.7583 155.371 43.7489C152.511 43.7395 150.142 46.0875 150.13 48.9059C150.119 51.861 152.38 54.1934 155.272 54.2122Z" fill="#096DD9"/>
<path d="M236.279 57.2004C234.882 57.1045 233.176 57.3734 231.488 57.0243C227.522 56.2018 224.653 52.3706 225.04 48.39C225.455 44.0304 228.852 40.8205 233.083 40.8048C235.648 40.7938 238.213 40.8189 240.778 40.7891C241.329 40.7891 241.519 40.9306 241.469 41.4842C241.422 42.0074 241.422 42.5337 241.469 43.0569C241.516 43.5979 241.343 43.7709 240.783 43.7631C238.348 43.7332 235.907 43.7395 233.479 43.7536C230.895 43.7694 228.918 45.2053 228.215 47.5282C227.987 48.3013 227.94 49.117 228.081 49.911C228.221 50.705 228.544 51.4555 229.024 52.1035C229.504 52.7514 230.128 53.279 230.846 53.6447C231.565 54.0104 232.358 54.2041 233.165 54.2107C235.705 54.2217 238.243 54.2296 240.783 54.1997C241.343 54.1997 241.525 54.357 241.465 54.9043C241.384 55.6497 241.791 56.6484 241.299 57.0778C240.877 57.4458 239.905 57.191 239.177 57.1989C238.304 57.2067 237.441 57.2004 236.279 57.2004Z" fill="#096DD9"/>
<path d="M183.183 57.2004C183.497 56.3511 191.169 41.3458 191.554 40.8441L199.89 57.2004C198.789 57.2004 197.828 57.1862 196.867 57.2004C196.425 57.2004 196.384 56.8544 196.252 56.5965C194.689 53.5517 193.135 50.5022 191.515 47.3284C191.126 48.0691 190.776 48.7203 190.439 49.3729C189.201 51.7934 187.961 54.2106 186.743 56.6405C186.54 57.0447 186.315 57.224 185.847 57.202C184.983 57.1721 184.12 57.2004 183.183 57.2004Z" fill="#096DD9"/>
<path d="M220.005 48.9231C220.005 46.435 220.017 43.947 219.994 41.4589C219.994 40.9525 220.122 40.7543 220.648 40.7936C221.374 40.8487 222.321 40.5719 222.773 40.9352C223.254 41.3237 222.92 42.3098 222.922 43.0316C222.938 47.5092 222.922 51.9883 222.942 56.4658C222.942 57.0352 222.829 57.2774 222.217 57.2097C221.519 57.1327 220.621 57.4866 220.165 57.0776C219.709 56.6687 220.02 55.7455 220.008 55.0504C219.994 53.0074 220.005 50.9645 220.005 48.9231Z" fill="#096DD9"/>
<path d="M176.914 83.1849C175.948 84.3236 174.888 85.1776 173.463 85.4544C171.277 85.879 169.264 84.9998 168.04 83.1299C166.31 80.4861 166.683 76.6817 168.872 74.5978C169.4 74.0965 170.029 73.7139 170.717 73.4757C171.405 73.2376 172.136 73.1493 172.861 73.217C173.586 73.2846 174.288 73.5065 174.92 73.8678C175.552 74.2292 176.099 74.7215 176.525 75.3118C176.609 75.4282 176.628 75.6122 176.83 75.6468C176.988 75.3826 176.87 75.0917 176.917 74.8227C176.992 74.3839 176.662 73.6353 177.419 73.6558C178.175 73.6762 177.872 74.4201 177.876 74.8589C177.9 77.5325 177.887 80.2062 177.887 82.8798C177.887 83.4287 177.887 83.9807 177.887 84.5296C177.887 84.8772 177.872 85.2829 177.415 85.2939C176.959 85.3049 176.92 84.9133 176.918 84.5563C176.912 84.0955 176.914 83.641 176.914 83.1849ZM167.981 79.2956C167.981 80.5537 168.217 81.4974 168.78 82.441C170.475 85.3144 174.441 85.3678 176.146 82.4992C177.279 80.5915 177.342 78.5674 176.341 76.5826C175.165 74.2471 172.409 73.4372 170.285 74.763C168.621 75.8025 168.012 77.4114 167.981 79.2956V79.2956Z" fill="#096DD9"/>
<path d="M150.691 75.6706C151.751 74.4407 152.862 73.6748 154.309 73.4814C156.691 73.1668 158.528 74.5115 158.945 76.8863C159.146 78.0328 159.055 79.1856 159.066 80.3353C159.08 81.724 159.076 83.1127 159.066 84.4999C159.066 84.8789 159.005 85.302 158.509 85.2737C158.055 85.2485 158.063 84.8317 158.063 84.4873C158.063 82.4962 158.063 80.5067 158.063 78.5109C158.063 78.1964 158.055 77.8819 158.028 77.5673C157.811 74.9849 155.965 73.7802 153.508 74.6122C151.671 75.2413 150.704 76.567 150.701 78.4968C150.701 80.3841 150.701 82.2713 150.701 84.1586C150.701 84.3426 150.701 84.525 150.691 84.709C150.671 85.0236 150.551 85.2957 150.188 85.2815C149.873 85.2705 149.759 85.0204 149.743 84.7326C149.734 84.5502 149.735 84.3662 149.735 84.1822V69.1045C149.735 68.9991 149.735 68.8937 149.735 68.7899C149.748 68.4219 149.719 67.9784 150.243 67.991C150.715 68.002 150.694 68.4219 150.696 68.7616C150.696 70.1503 150.696 71.5391 150.696 72.9262L150.691 75.6706Z" fill="#096DD9"/>
<path d="M137.185 68.6198C138.737 68.6284 140.261 69.0316 141.614 69.7915C141.728 69.8544 141.837 69.9267 141.949 69.9944C142.295 70.2083 142.688 70.4662 142.403 70.9144C142.119 71.3626 141.757 71.045 141.46 70.8594C140.164 70.073 138.778 69.5902 137.238 69.5918C135.371 69.5731 133.57 70.2858 132.222 71.5775C130.873 72.8692 130.083 74.6374 130.021 76.5039C129.851 80.2407 131.765 83.2666 134.991 84.2716C137.125 84.9337 139.176 84.6223 141.125 83.5418C141.261 83.4663 141.392 83.3846 141.527 83.2981C141.829 83.1219 142.166 82.9206 142.417 83.3169C142.669 83.7132 142.387 83.9554 142.076 84.1426C138.962 86.0063 135.046 86.2186 132.094 83.7714C129.225 81.3935 128.349 78.2496 129.299 74.7267C130.202 71.3847 132.501 69.3606 135.947 68.7299C136.345 68.6544 136.768 68.6544 137.185 68.6198Z" fill="#096DD9"/>
<path d="M197.251 75.5007C198.602 73.9625 200.082 73.1306 201.969 73.2124C204.155 73.3067 205.586 74.642 205.773 76.8296C205.986 79.39 205.828 81.9583 205.86 84.5218C205.86 84.8694 205.798 85.2783 205.36 85.2814C204.856 85.2814 204.85 84.8552 204.85 84.4746C204.85 82.3777 204.85 80.2807 204.85 78.1837C204.858 77.8163 204.845 77.4488 204.812 77.0828C204.587 75.1547 203.348 74.0947 201.414 74.1434C198.985 74.2126 197.265 75.9788 197.265 78.4071C197.265 80.3719 197.265 82.3357 197.265 84.2985C197.274 84.5092 197.259 84.7202 197.221 84.9276C197.202 85.0332 197.145 85.1283 197.061 85.195C196.977 85.2616 196.872 85.2952 196.765 85.2893C196.658 85.2917 196.555 85.2536 196.475 85.1826C196.396 85.1117 196.346 85.0132 196.337 84.9071C196.315 84.7508 196.305 84.5931 196.307 84.4353C196.307 81.1095 196.307 77.7837 196.307 74.458C196.307 74.3274 196.307 74.1969 196.318 74.0663C196.317 74.0068 196.329 73.9478 196.352 73.8929C196.374 73.8379 196.408 73.7882 196.451 73.7467C196.494 73.7052 196.544 73.6729 196.6 73.6516C196.655 73.6303 196.715 73.6205 196.774 73.6228C196.834 73.6169 196.894 73.6236 196.951 73.6424C197.008 73.6612 197.061 73.6917 197.105 73.732C197.149 73.7723 197.185 73.8215 197.209 73.8764C197.233 73.9313 197.246 73.9906 197.246 74.0506C197.271 74.4721 197.251 74.8842 197.251 75.5007Z" fill="#096DD9"/>
<path d="M186.595 79.2877V74.0977C186.595 73.7265 186.557 73.2626 187.053 73.2484C187.616 73.2327 187.562 73.7312 187.564 74.1213C187.564 77.553 187.564 80.9841 187.564 84.4148C187.564 84.7812 187.6 85.2483 187.103 85.2625C186.535 85.2782 186.597 84.7796 186.597 84.3896C186.594 82.6942 186.593 80.9936 186.595 79.2877Z" fill="#096DD9"/>
<path d="M187.89 70.7839C187.898 71.3611 187.614 71.6678 187.037 71.6552C186.506 71.6426 186.24 71.3622 186.241 70.8138C186.241 70.2303 186.529 69.9347 187.094 69.9362C187.658 69.9378 187.887 70.2539 187.89 70.7839Z" fill="#096DD9"/>
</svg>
